<?xml version="1.0" encoding="utf-8"?>
<!-- Generator: Adobe Illustrator 25.0.0, SVG Export Plug-In . SVG Version: 6.00 Build 0)  -->
<svg version="1.1" id="Layer_1" xmlns="http://www.w3.org/2000/svg" xmlns:xlink="http://www.w3.org/1999/xlink" x="0px" y="0px"
	 viewBox="0 0 300 300" style="enable-background:new 0 0 300 300;" xml:space="preserve">
<style type="text/css">
	.st0{fill:#1A314B;}
	.st1{fill:none;stroke:#1A314B;stroke-width:3.3897;stroke-linecap:round;stroke-linejoin:round;stroke-miterlimit:10;}
	.st2{fill:none;}
	.st3{font-family:'Montserrat-Black';}
	.st4{font-size:25.2479px;}
	.st5{fill:#FFFFFF;}
	.st6{font-family:'Rubik-Black';}
	.st7{font-size:53.7423px;}
	.st8{fill:none;stroke:#FFFFFF;stroke-width:2;stroke-linecap:round;stroke-linejoin:round;stroke-miterlimit:10;}
</style>
<g>
	<g>
		<g>
			<g>
				<path class="st0" d="M282.3,170.9c-1.9,0.3-3.8,0.7-5.7,1c-0.4,1.9-0.6,3.9-1.1,5.8c-0.7-1.8-1.6-3.6-2.4-5.3
					c-1.9,0.3-3.8,0.5-5.7,0.7c1.4-1.2,2.7-2.5,4.1-3.9c-0.9-1.7-1.8-3.3-2.8-4.9c1.7,0.8,3.5,1.6,5.2,2.4c1.3-1.4,2.7-2.8,3.9-4.3
					c-0.2,2-0.5,3.9-0.7,5.9C278.9,169.1,280.6,170,282.3,170.9z"/>
			</g>
			<g>
				<path class="st0" d="M274.7,198.9c-1.9-0.1-3.9-0.2-5.8-0.3c-0.7,1.9-1.6,3.6-2.4,5.4c-0.4-1.9-0.7-3.8-1.2-5.7
					c-1.9-0.1-3.8-0.3-5.7-0.6c1.7-0.9,3.2-1.9,4.8-2.9c-0.5-1.8-1-3.6-1.6-5.4c1.5,1.1,3.1,2.3,4.6,3.5c1.6-1.1,3.1-2.2,4.7-3.4
					c-0.7,1.9-1.2,3.8-1.9,5.6C271.8,196.4,273.2,197.6,274.7,198.9z"/>
			</g>
			<g>
				<path class="st0" d="M261.3,224.6c-1.8-0.5-3.7-1-5.6-1.5c-1.2,1.6-2.2,3.2-3.5,4.8c0.1-1.9,0.1-3.9,0-5.8
					c-1.8-0.6-3.7-1.2-5.5-1.8c1.8-0.6,3.6-1.1,5.4-1.8c-0.1-1.9-0.3-3.8-0.4-5.6c1.2,1.4,2.5,2.9,3.7,4.4c1.8-0.7,3.6-1.4,5.4-2.3
					c-0.9,1.7-2.1,3.4-3.1,5C258.9,221.5,260.1,223.1,261.3,224.6z"/>
			</g>
			<g>
				<path class="st0" d="M242.6,246.8c-1.7-0.9-3.4-1.8-5.1-2.7c-1.4,1.4-2.9,2.6-4.4,3.9c0.5-1.9,0.9-3.8,1.3-5.6
					c-1.7-0.9-3.3-1.9-5-2.9c1.9-0.1,3.7-0.4,5.6-0.6c0.3-1.9,0.6-3.7,0.8-5.6c0.9,1.7,1.8,3.4,2.7,5.1c1.9-0.3,3.8-0.7,5.7-1.1
					c-1.4,1.4-2.7,2.9-4.1,4.3C241,243.3,241.8,245,242.6,246.8z"/>
			</g>
			<g>
				<path class="st0" d="M219.7,264.5c-1.5-1.2-3-2.5-4.4-3.7c-1.7,1-3.4,2-5.2,2.9c0.9-1.7,1.7-3.5,2.5-5.3
					c-1.4-1.3-2.8-2.6-4.2-3.9c1.8,0.2,3.7,0.5,5.6,0.7c0.7-1.8,1.4-3.6,2-5.3c0.5,1.8,1,3.7,1.5,5.5c1.9,0.1,3.9,0.2,5.8,0.2
					c-1.6,1.2-3.3,2.2-4.9,3.3C218.8,260.7,219.2,262.6,219.7,264.5z"/>
			</g>
			<g>
				<path class="st0" d="M193.4,276.8c-1.2-1.5-2.4-3.1-3.5-4.6c-1.9,0.7-3.8,1.2-5.7,1.7c1.2-1.5,2.4-3,3.6-4.6
					c-1.1-1.5-2.2-3.1-3.3-4.7c1.8,0.7,3.5,1.2,5.3,1.8c1.1-1.5,2.1-3.1,3.1-4.7c0.1,1.9,0.2,3.8,0.3,5.8c1.8,0.5,3.7,1,5.6,1.4
					c-1.8,0.7-3.7,1.5-5.5,2.1C193.4,273,193.4,274.9,193.4,276.8z"/>
			</g>
			<g>
				<path class="st0" d="M165.1,283.2c-0.8-1.7-1.6-3.5-2.4-5.2l-5.9,0.4c1.5-1.2,3-2.5,4.5-3.7c-0.8-1.8-1.5-3.5-2.2-5.3
					c1.6,1,3.2,2.1,4.8,3c1.4-1.3,2.7-2.6,4-3.9c-0.3,1.9-0.6,3.8-0.9,5.6c1.7,1,3.4,1.8,5.2,2.6l-2.9,0.5l-2.9,0.4
					C165.9,279.5,165.5,281.3,165.1,283.2z"/>
			</g>
			<g>
				<path class="st0" d="M136.1,283.4c-0.4-1.9-0.9-3.8-1.3-5.7c-2-0.3-3.9-0.4-5.9-0.8c1.7-0.8,3.5-1.8,5.2-2.7
					c-0.4-1.9-0.7-3.8-1-5.6c1.3,1.3,2.7,2.6,4.1,3.9c1.6-1,3.2-2,4.8-3c-0.7,1.8-1.4,3.6-2.1,5.3c1.5,1.2,3,2.5,4.5,3.7
					c-2,0-3.9-0.3-5.9-0.4C137.7,279.9,136.9,281.7,136.1,283.4z"/>
			</g>
			<g>
				<path class="st0" d="M107.8,277.4c0-1.9,0-3.9,0-5.8c-1.9-0.6-3.7-1.3-5.5-2.1c1.9-0.5,3.7-0.9,5.6-1.5c0.1-1.9,0.1-3.8,0.2-5.7
					c1,1.6,2.1,3.1,3.1,4.7c1.8-0.6,3.6-1.2,5.3-1.9c-1.1,1.6-2.1,3.2-3.2,4.8c1.2,1.5,2.4,3,3.6,4.5c-1.9-0.5-3.8-1.1-5.7-1.6
					C110.1,274.3,108.9,275.8,107.8,277.4z"/>
			</g>
			<g>
				<path class="st0" d="M81.4,265.3c0.4-1.9,0.8-3.7,1.2-5.6l-5-3.2c2,0,3.9-0.2,5.8-0.3c0.5-1.9,1-3.7,1.5-5.6
					c0.7,1.7,1.3,3.6,2,5.3c1.9-0.2,3.8-0.4,5.6-0.7c-1.4,1.3-2.8,2.6-4.2,3.9c0.8,1.8,1.6,3.5,2.5,5.2l-2.6-1.4l-2.6-1.5
					C84.3,262.8,82.8,264.1,81.4,265.3z"/>
			</g>
			<g>
				<path class="st0" d="M58.2,247.9c0.8-1.8,1.6-3.5,2.4-5.3c-1.5-1.3-2.8-2.8-4.2-4.2c1.9,0.4,3.8,0.8,5.7,1
					c0.9-1.7,1.7-3.4,2.6-5.1c0.2,1.9,0.6,3.7,0.9,5.6c1.9,0.3,3.8,0.4,5.6,0.5c-1.6,1-3.3,2-4.9,3c0.4,1.9,0.9,3.7,1.4,5.7
					l-4.5-3.9C61.6,246.1,59.9,247,58.2,247.9z"/>
			</g>
			<g>
				<path class="st0" d="M39.3,225.9c1.1-1.6,2.3-3.1,3.5-4.6c-1.1-1.7-2.1-3.3-3.2-5c1.8,0.8,3.6,1.5,5.4,2.2
					c1.2-1.5,2.4-3,3.7-4.4c-0.1,1.8-0.3,3.8-0.3,5.6c1.8,0.6,3.6,1.2,5.4,1.7c-1.8,0.6-3.6,1.2-5.4,1.8c0,1.9,0,3.9,0.1,5.8
					c-1.2-1.5-2.4-3.1-3.5-4.7C43,224.9,41.1,225.4,39.3,225.9z"/>
			</g>
			<g>
				<path class="st0" d="M25.5,200.4c1.5-1.3,2.9-2.5,4.4-3.8c-0.8-1.8-1.4-3.7-2-5.6c1.6,1.1,3.1,2.3,4.8,3.3
					c1.5-1.2,3-2.4,4.5-3.5c-0.5,1.8-1,3.6-1.5,5.4c1.6,1,3.2,1.9,4.9,2.8c-1.9,0.2-3.8,0.4-5.7,0.6c-0.4,1.9-0.8,3.8-1.1,5.7
					l-2.4-5.4C29.3,200.2,27.4,200.3,25.5,200.4z"/>
			</g>
			<g>
				<path class="st0" d="M17.6,172.5c1.7-0.9,3.4-1.8,5.1-2.7l-0.8-5.9c1.3,1.5,2.6,2.9,4,4.3c1.7-0.9,3.5-1.7,5.2-2.5
					c-0.9,1.6-1.9,3.3-2.7,5c1.4,1.3,2.7,2.6,4.1,3.8c-1.9-0.2-3.8-0.4-5.7-0.6c-0.9,1.7-1.6,3.5-2.3,5.3c-0.5-1.9-0.9-3.8-1.2-5.8
					C21.4,173.1,19.5,172.8,17.6,172.5z"/>
			</g>
			<g>
				<path class="st0" d="M15.8,143.5c1.8-0.5,3.7-1.1,5.6-1.6c0.2-2,0.3-3.9,0.5-5.9c0.9,1.7,2,3.4,3,5c1.9-0.5,3.7-0.9,5.6-1.3
					c-1.2,1.4-2.5,2.8-3.7,4.3c1.1,1.6,2.2,3.1,3.3,4.6c-1.8-0.6-3.6-1.2-5.4-1.8c-1.2,1.5-2.4,3.1-3.4,4.7c-0.1-2,0.1-3.9,0.1-5.9
					C19.5,145,17.7,144.3,15.8,143.5z"/>
			</g>
			<g>
				<path class="st0" d="M20.4,114.9c1.9-0.1,3.9-0.2,5.8-0.3l0.8-2.8l0.9-2.8c0.6,1.9,1.1,3.7,1.8,5.5c1.9-0.1,3.8-0.1,5.7-0.1
					c-1.5,1.1-3,2.2-4.5,3.4c0.6,1.8,1.4,3.5,2.2,5.2c-1.7-1-3.3-2-4.9-3c-1.4,1.2-2.9,2.5-4.4,3.9l1.3-5.8
					C23.5,117,21.9,116,20.4,114.9z"/>
			</g>
			<g>
				<path class="st0" d="M30.9,87.9c1.9,0.3,3.8,0.6,5.7,0.9l2.9-5.1c0.2,2,0.4,3.9,0.6,5.8c1.9,0.4,3.8,0.8,5.6,1.2
					c-1.7,0.7-3.5,1.5-5.1,2.3c0.3,1.9,0.6,3.7,1,5.5c-1.4-1.3-2.8-2.6-4.2-4c-1.8,0.9-3.4,1.9-5.1,2.8c0.8-1.8,1.6-3.6,2.5-5.3
					C33.6,90.7,32.3,89.3,30.9,87.9z"/>
			</g>
			<g>
				<path class="st0" d="M47.1,63.8c1.8,0.7,3.6,1.4,5.4,2.1l1.9-2.2l2-2.1c-0.3,1.9-0.5,3.8-0.7,5.8c1.8,0.8,3.5,1.5,5.2,2.3
					c-1.8,0.4-3.6,0.8-5.5,1.2c-0.2,1.9-0.2,3.8-0.2,5.7c-1.1-1.6-2.2-3.2-3.2-4.8c-1.8,0.5-3.7,1.1-5.6,1.7
					c1.2-1.6,2.4-3.1,3.6-4.7C49.1,67.1,48.1,65.4,47.1,63.8z"/>
			</g>
			<g>
				<path class="st0" d="M68,43.7c1.6,1.1,3.2,2.1,4.8,3.2l4.8-3.4c-0.7,1.9-1.3,3.7-1.9,5.5c1.6,1.1,3.1,2.3,4.6,3.4
					c-1.9-0.1-3.8-0.1-5.6,0c-0.5,1.8-1,3.6-1.4,5.5c-0.7-1.8-1.4-3.5-2.1-5.3c-2,0.1-3.8,0.3-5.8,0.5c1.5-1.3,3-2.6,4.5-3.8
					C69.3,47.4,68.6,45.6,68,43.7z"/>
			</g>
			<g>
				<path class="st0" d="M92.8,28.6c1.4,1.4,2.7,2.8,4,4.2c1.8-0.8,3.6-1.6,5.4-2.3c-1.1,1.6-2.1,3.2-3,4.9c1.3,1.4,2.5,2.9,3.8,4.3
					c-1.8-0.4-3.6-0.8-5.5-1.2c-0.9,1.6-1.7,3.4-2.5,5c-0.3-1.9-0.6-3.8-0.9-5.7c-1.9-0.3-3.8-0.6-5.8-0.8l5.3-2.7
					C93.2,32.4,93,30.5,92.8,28.6z"/>
			</g>
			<g>
				<path class="st0" d="M120.2,19.2c1,1.6,2,3.3,3,4.9c1.9-0.4,3.9-0.7,5.8-1.1c-1.4,1.4-2.7,2.8-4,4.2c0.9,1.7,1.9,3.4,2.8,5.1
					c-1.7-0.9-3.4-1.7-5.1-2.4c-1.2,1.5-2.4,2.8-3.6,4.3c0.1-1.9,0.2-3.8,0.3-5.7c-1.8-0.8-3.6-1.4-5.4-2c1.9-0.5,3.8-1.1,5.7-1.5
					C119.8,23,120,21.1,120.2,19.2z"/>
			</g>
			<g>
				<path class="st0" d="M149,15.9c0.6,1.8,1.3,3.6,1.9,5.5l5.9,0.2c-1.7,1.1-3.3,2.2-4.8,3.2c0.6,1.8,1.1,3.7,1.6,5.5
					c-1.5-1.1-2.9-2.4-4.5-3.5c-1.5,1.2-3,2.3-4.4,3.5c0.5-1.8,1-3.7,1.5-5.5c-1.6-1.1-3.2-2.2-4.9-3.2c2-0.2,3.9-0.2,5.9-0.2
					C147.8,19.6,148.4,17.7,149,15.9z"/>
			</g>
			<g>
				<path class="st0" d="M177.9,18.8c0.2,1.9,0.5,3.9,0.6,5.8c1.9,0.4,3.8,0.9,5.7,1.4l-2.7,1l-2.7,1.1c0.2,1.9,0.3,3.8,0.4,5.7
					c-1.2-1.4-2.4-2.9-3.6-4.3c-1.7,0.7-3.4,1.7-5.1,2.5c0.9-1.7,1.8-3.4,2.7-5.1c-1.3-1.4-2.7-2.8-4.1-4.2l5.8,1
					C175.9,22.1,176.9,20.5,177.9,18.8z"/>
			</g>
			<g>
				<path class="st0" d="M205.4,27.9c-0.2,1.9-0.4,3.8-0.6,5.7c1.8,0.8,3.5,1.8,5.3,2.7c-1.9,0.3-3.9,0.6-5.7,0.9
					c-0.3,1.9-0.6,3.8-0.9,5.7c-0.8-1.7-1.7-3.4-2.6-5c-1.9,0.4-3.7,0.8-5.5,1.3c1.2-1.5,2.5-3,3.7-4.4c-1-1.7-2-3.2-3.1-4.9
					c1.8,0.7,3.7,1.4,5.5,2.2C202.8,30.7,204.1,29.3,205.4,27.9z"/>
			</g>
			<g>
				<path class="st0" d="M230.3,42.7c-0.6,1.9-1.2,3.7-1.9,5.5c1.5,1.2,3.1,2.4,4.6,3.7c-1.9-0.2-3.9-0.3-5.8-0.4
					c-0.7,1.8-1.3,3.6-2.1,5.4c-0.5-1.8-0.9-3.6-1.5-5.5c-1.9,0-3.8,0.1-5.7,0.1c1.5-1.2,3-2.3,4.6-3.5c-0.6-1.8-1.2-3.7-2-5.5
					c1.7,1,3.2,2.3,4.9,3.4C227.1,44.9,228.7,43.8,230.3,42.7z"/>
			</g>
			<g>
				<path class="st0" d="M251.5,62.6c-1,1.7-2,3.3-3,5c1.3,1.5,2.5,3.1,3.7,4.6c-1.9-0.6-3.7-1.1-5.6-1.6c-1,1.6-2.1,3.2-3.2,4.8
					c0-1.9-0.1-3.8-0.3-5.6c-1.9-0.4-3.6-0.8-5.5-1.1c1.7-0.8,3.5-1.7,5.2-2.4c-0.2-1.9-0.5-3.8-0.8-5.7c1.3,1.4,2.8,2.8,4,4.3
					C247.9,64,249.7,63.3,251.5,62.6z"/>
			</g>
			<g>
				<path class="st0" d="M268,86.4c-1.3,1.4-2.6,2.8-4,4.2c0.9,1.8,1.8,3.5,2.6,5.3c-1.7-1-3.4-1.9-5.1-2.8c-1.4,1.4-2.7,2.7-4.1,4
					c0.3-1.8,0.7-3.7,0.9-5.6c-1.7-0.8-3.5-1.5-5.2-2.3c1.9-0.4,3.7-0.8,5.6-1.2c0.2-1.9,0.4-3.9,0.5-5.8c1.1,1.7,2,3.4,3,5.1
					C264.1,87.1,266.1,86.7,268,86.4z"/>
			</g>
			<g>
				<path class="st0" d="M278.8,113.3c-1.6,1.1-3.2,2.2-4.8,3.3c0.6,1.9,0.9,3.8,1.4,5.7c-1.5-1.3-2.9-2.6-4.4-3.8
					c-1.6,1-3.3,2-4.9,3c0.8-1.7,1.4-3.4,2.1-5.2c-1.5-1.2-3-2.3-4.5-3.3c1.9,0,3.9,0,5.8,0c0.6-1.8,1.2-3.7,1.7-5.5
					c0.6,1.9,1.3,3.7,1.8,5.6C275,113.1,276.9,113.2,278.8,113.3z"/>
			</g>
			<g>
				<path class="st0" d="M283.7,141.9c-1.8,0.7-3.5,1.5-5.4,2.1l0.1,5.9c-1.2-1.6-2.3-3.1-3.5-4.7c-1.8,0.7-3.6,1.3-5.4,1.9
					c1.1-1.5,2.2-3.1,3.2-4.7c-1.2-1.5-2.5-2.9-3.7-4.2c1.9,0.4,3.7,0.8,5.6,1.2l1.5-2.5l1.4-2.5c0.3,2,0.4,3.9,0.6,5.9
					C279.9,140.9,281.8,141.4,283.7,141.9z"/>
			</g>
		</g>
		<g>
			<g>
				<g>
					
						<ellipse transform="matrix(0.7071 -0.7071 0.7071 0.7071 -62.1866 149.8685)" class="st1" cx="149.8" cy="150" rx="111.7" ry="111.7"/>
				</g>
			</g>
		</g>
		<g>
			<g>
				<g>
					<g>
						<path class="st0" d="M149.8,7c38.2,0,74.1,14.9,101.1,41.9s41.9,62.9,41.9,101.1s-14.9,74.1-41.9,101.1S188,293,149.8,293
							c-38.2,0-74.1-14.9-101.1-41.9c-27-27-41.9-62.9-41.9-101.1S21.7,75.9,48.7,48.9C75.7,21.9,111.6,7,149.8,7 M149.8,0
							C67,0-0.2,67.2-0.2,150s67.2,150,150,150c82.8,0,150-67.2,150-150S232.7,0,149.8,0L149.8,0z"/>
					</g>
				</g>
			</g>
		</g>
	</g>
	<g>
		<g>
			<rect x="78" y="207" class="st2" width="143.6" height="18.8"/>
			<text transform="matrix(1 0 0 1 78.377 225.6875)" class="st0 st3 st4">CERTIFIED</text>
		</g>
		<g>
			<rect x="76.6" y="74.3" class="st2" width="146.4" height="22"/>
			<text transform="matrix(1 0 0 1 78.377 93.0186)" class="st0 st3 st4">CERTIFIED</text>
		</g>
		<g>
			<g>
				<path class="st0" d="M291.2,99.8H8.4c-5.6,15.7-8.6,32.6-8.6,50.2s3,34.5,8.6,50.2h282.8c5.6-15.7,8.6-32.6,8.6-50.2
					S296.8,115.5,291.2,99.8z"/>
			</g>
			<g>
				<rect x="20.4" y="132.4" class="st2" width="258.8" height="38.6"/>
				<text transform="matrix(1 0 0 1 91.9355 170.5146)" class="st5 st6 st7">C R A</text>
			</g>
			<line class="st8" x1="24" y1="116.2" x2="269.9" y2="116.2"/>
			<line class="st8" x1="24" y1="187.5" x2="269.9" y2="187.5"/>
		</g>
	</g>
</g>
</svg>
