<svg width="40" height="42" viewBox="0 0 40 42" fill="none" xmlns="http://www.w3.org/2000/svg">
<path fill-rule="evenodd" clip-rule="evenodd" d="M4.98877 19.4719H3.86517C2.0036 19.4719 0.494385 20.9811 0.494385 22.8427V38.9475C0.494385 40.1887 1.50041 41.1947 2.74158 41.1947H37.1986C37.7945 41.1945 38.366 40.9577 38.7874 40.5363C39.2088 40.1149 39.4456 39.5434 39.4458 38.9475V26.9626C39.4457 26.3666 39.2089 25.7951 38.7875 25.3736C38.3661 24.9522 37.7945 24.7154 37.1986 24.7154H3.86373C3.61799 24.7154 3.37464 24.667 3.1476 24.573C2.92055 24.479 2.71425 24.3411 2.54048 24.1674C2.36672 23.9936 2.22888 23.7873 2.13485 23.5603C2.04081 23.3332 1.99243 23.0899 1.99245 22.8441V22.8427C1.99245 21.8084 2.83092 20.97 3.86517 20.97H4.98877V23.2171H35.7003V11.2323H29.7079C29.4127 11.2323 29.1205 11.1742 28.8478 11.0613C28.5752 10.9484 28.3274 10.7829 28.1188 10.5742C27.9101 10.3655 27.7446 10.1177 27.6316 9.84508C27.5187 9.57241 27.4606 9.28018 27.4607 8.98506V0.745239H7.23596C6.63998 0.745287 6.06843 0.982059 5.64701 1.40348C5.22559 1.8249 4.98881 2.39645 4.98877 2.99243V19.4719ZM15.6931 29.4879L18.6893 36.9786C18.7449 37.1176 18.8408 37.2368 18.9648 37.3207C19.0888 37.4046 19.2351 37.4495 19.3848 37.4495C19.5345 37.4495 19.6808 37.4046 19.8048 37.3207C19.9288 37.2368 20.0248 37.1176 20.0804 36.9786L23.0765 29.4879C23.2302 29.1041 23.0431 28.6678 22.6592 28.5142C22.2754 28.3607 21.8391 28.5477 21.6856 28.9315L19.3848 34.6834L17.084 28.9315C16.9305 28.5477 16.4942 28.3607 16.1104 28.5142C15.7266 28.6678 15.5396 29.1041 15.6931 29.4879ZM28.0928 28.4607H28.0908C25.6097 28.4607 23.5984 30.472 23.5984 32.9532V32.955C23.5984 35.4372 25.6104 37.4494 28.0928 37.4494C28.7946 37.4495 29.4825 37.254 30.0795 36.8851C30.6765 36.5161 31.1589 35.9882 31.4727 35.3604L31.5705 35.165C31.6235 35.0605 31.6509 34.9449 31.6507 34.8278V33.4232C31.6507 33.3248 31.6314 33.2274 31.5937 33.1365C31.5561 33.0457 31.5009 32.9631 31.4314 32.8935C31.3618 32.824 31.2793 32.7688 31.1884 32.7312C31.0975 32.6936 31.0001 32.6742 30.9018 32.6742H28.0928C27.8941 32.6743 27.7036 32.7532 27.5632 32.8936C27.4227 33.0341 27.3437 33.2245 27.3436 33.4232C27.3436 33.8367 27.6793 34.1723 28.0928 34.1723H30.1526V34.6509L30.1329 34.6904C29.9434 35.0693 29.6523 35.388 29.2919 35.6107C28.9316 35.8334 28.5164 35.9514 28.0928 35.9514C26.4379 35.9514 25.0965 34.6099 25.0965 32.955V32.9532C25.0965 31.2993 26.437 29.9587 28.0908 29.9587H28.0928C28.4457 29.9587 28.7939 30.0405 29.1098 30.1979C29.4257 30.3553 29.7008 30.5839 29.9133 30.8657C30.1623 31.1958 30.6325 31.2616 30.9625 31.0126C31.2926 30.7636 31.3584 30.2935 31.1094 29.9634C30.8346 29.5994 30.4963 29.2881 30.1107 29.0446C29.5069 28.663 28.8071 28.4605 28.0928 28.4607ZM8.28944 34.8324L8.28926 35.2037C8.28921 35.4986 8.34727 35.7906 8.46011 36.0631C8.57296 36.3356 8.73837 36.5832 8.94692 36.7918C9.15547 37.0003 9.40306 37.1657 9.67554 37.2786C9.94803 37.3914 10.2401 37.4495 10.535 37.4494H12.2235C12.5184 37.4494 12.8104 37.3913 13.0828 37.2785C13.3553 37.1656 13.6029 37.0002 13.8114 36.7916C14.0199 36.5831 14.1853 36.3355 14.2982 36.0631C14.411 35.7906 14.4691 35.4986 14.469 35.2037V34.9056C14.469 33.9868 13.9096 33.1605 13.0565 32.8191L10.3328 31.7297C10.1718 31.6653 10.0338 31.5542 9.93664 31.4106C9.83945 31.267 9.7875 31.0977 9.78751 30.9243V30.7078C9.78751 30.5092 9.86641 30.3187 10.0069 30.1782C10.1473 30.0377 10.3378 29.9588 10.5365 29.9587H12.2218C12.3202 29.9587 12.4177 29.9781 12.5085 30.0157C12.5994 30.0533 12.682 30.1085 12.7516 30.1781C12.8212 30.2476 12.8764 30.3302 12.914 30.4211C12.9516 30.512 12.971 30.6095 12.971 30.7078V31.0778C12.971 31.2892 13.0645 31.4805 13.1585 31.5776C13.2289 31.6571 13.3154 31.7208 13.4121 31.7646C13.5089 31.8083 13.6139 31.8311 13.7201 31.8314C14.0847 31.8314 14.469 31.5499 14.469 31.0778V30.7078C14.469 30.1119 14.2322 29.5403 13.8108 29.1189C13.3894 28.6975 12.8178 28.4607 12.2218 28.4607H10.5365C9.9405 28.4608 9.369 28.6976 8.94761 29.119C8.52621 29.5404 8.2894 30.1119 8.28926 30.7078V30.9243C8.28926 31.8915 8.8782 32.7614 9.77636 33.1206L12.5001 34.2102C12.6391 34.2658 12.7583 34.3617 12.8422 34.4857C12.9261 34.6096 12.971 34.7559 12.971 34.9056V35.2037C12.9709 35.4019 12.8922 35.592 12.752 35.7322C12.6118 35.8724 12.4217 35.9513 12.2235 35.9514H10.535C10.4368 35.9514 10.3396 35.9321 10.2489 35.8945C10.1582 35.8569 10.0758 35.8019 10.0064 35.7325C9.93698 35.6631 9.88192 35.5806 9.84436 35.4899C9.8068 35.3992 9.78748 35.302 9.78751 35.2038V34.8323C9.78751 34.3382 9.38481 34.0783 9.05151 34.0783C8.73546 34.0783 8.28926 34.3233 8.28926 34.8278C8.28912 34.8293 8.28918 34.8309 8.28944 34.8324ZM24.7581 12.861L23.8472 9.93122C23.6429 9.27418 23.25 8.69169 22.7173 8.25618C22.1846 7.82068 21.5356 7.55138 20.8511 7.48178L13.0504 6.68843C12.9398 6.67722 12.8281 6.69076 12.7234 6.72806C12.6187 6.76536 12.5236 6.82548 12.445 6.90408C12.3664 6.98267 12.3063 7.07777 12.269 7.18248C12.2317 7.28719 12.2182 7.39888 12.2294 7.50946L13.0227 15.3099C13.0923 15.9945 13.3616 16.6434 13.7971 17.1761C14.2326 17.7089 14.8151 18.1018 15.4722 18.306L18.402 19.2171L20.3899 21.2049C20.4595 21.2745 20.5421 21.3297 20.633 21.3674C20.7238 21.405 20.8213 21.4244 20.9196 21.4244C21.018 21.4244 21.1154 21.405 21.2063 21.3674C21.2972 21.3297 21.3798 21.2745 21.4493 21.2049L26.7461 15.9084C26.8865 15.7679 26.9654 15.5773 26.9654 15.3787C26.9654 15.18 26.8865 14.9895 26.7461 14.849L24.7581 12.861ZM24.0976 14.3194L25.157 15.3786L20.9197 19.6161L19.8603 18.5567L24.0976 14.3194ZM14.992 8.3918L20.6993 8.97212C21.0917 9.01202 21.4636 9.16637 21.7689 9.41597C22.0742 9.66558 22.2994 9.99941 22.4165 10.376L23.248 13.0503L18.5913 17.707L15.9169 16.8756C15.5404 16.7585 15.2066 16.5332 14.957 16.2279C14.7074 15.9226 14.553 15.5507 14.5131 15.1584L13.9328 9.45104L16.2432 11.7615C15.8447 12.5967 15.991 13.6279 16.6822 14.3194C17.5594 15.1963 18.9834 15.1963 19.8603 14.3194C20.7373 13.4424 20.7373 12.0182 19.8603 11.1413C19.1691 10.45 18.1377 10.3037 17.3027 10.7023L14.992 8.3918ZM18.8011 13.2599C18.5086 13.5523 18.034 13.5523 17.7417 13.2599C17.4494 12.9676 17.4494 12.493 17.7417 12.2007C18.034 11.9084 18.5086 11.9084 18.8011 12.2007C18.9415 12.3412 19.0203 12.5317 19.0203 12.7303C19.0203 12.9289 18.9415 13.1194 18.8011 13.2599ZM28.9587 1.24465V8.98506C28.9587 9.08344 28.978 9.18087 29.0157 9.27177C29.0533 9.36267 29.1085 9.44525 29.1781 9.51481C29.2476 9.58437 29.3302 9.63953 29.4211 9.67714C29.5121 9.71475 29.6095 9.73407 29.7079 9.734H35.3258L28.9587 1.24465Z" fill="url(#paint0_linear_441_390)"/>
<defs>
<linearGradient id="paint0_linear_441_390" x1="0.494366" y1="-39.836" x2="39.4458" y2="-39.836" gradientUnits="userSpaceOnUse">
<stop offset="0.0234385" stop-color="#6C3902"/>
<stop offset="0.245" stop-color="#D49B17"/>
<stop offset="0.486979" stop-color="#9E832F"/>
<stop offset="0.73" stop-color="#AD6B12"/>
<stop offset="0.976602" stop-color="#471C0B"/>
</linearGradient>
</defs>
</svg>
